<?xml version="1.0" standalone="no"?>
<!DOCTYPE svg PUBLIC "-//W3C//DTD SVG 1.1//EN" "http://www.w3.org/Graphics/SVG/1.1/DTD/svg11.dtd" >
<svg xmlns="http://www.w3.org/2000/svg">
<metadata></metadata>
<defs>
<font id="intro_regular_altregular" horiz-adv-x="952" >
<font-face units-per-em="2048" ascent="1536" descent="-512" />
<missing-glyph horiz-adv-x="514" />
<glyph horiz-adv-x="2048" />
<glyph horiz-adv-x="2048" />
<glyph unicode="&#xd;" horiz-adv-x="2048" />
<glyph unicode=" "  horiz-adv-x="514" />
<glyph unicode="&#x09;" horiz-adv-x="514" />
<glyph unicode="&#xa0;" horiz-adv-x="514" />
<glyph unicode="!" horiz-adv-x="559" d="M141 96q0 58 38 91.5t97 33.5q58 0 97 -33.5t39 -91.5q0 -54 -39.5 -89.5t-96.5 -35.5q-58 0 -96.5 35t-38.5 90zM156 1436h243l-12 -1106h-213z" />
<glyph unicode="&#x22;" horiz-adv-x="761" d="M143 989v445h181l-27 -445h-154zM451 989v445h180l-27 -445h-153z" />
<glyph unicode="#" horiz-adv-x="1429" d="M88 387v160h242l45 293h-223v161h247l64 431h199l-62 -431h348l66 431h198l-61 -431h188v-161h-213l-43 -293h191v-160h-213l-55 -387h-207l57 387h-344l-55 -387h-209l57 387h-217zM526 543h359l45 303h-359z" />
<glyph unicode="$" horiz-adv-x="1316" d="M88 408h229q3 -66 47.5 -116t105.5 -74.5t130 -29.5v451q-80 9 -146.5 24.5t-131.5 45t-109.5 70.5t-72 104t-27.5 143q0 100 41 181t110.5 133t155 82t180.5 36v139h121v-143q91 -9 172 -39t147 -80t106 -127t42 -172h-223q-7 99 -72 146t-172 61v-422q92 -11 159 -25.5 t138 -44.5t115.5 -72.5t73 -111.5t28.5 -159q0 -98 -44.5 -178.5t-119 -132t-163.5 -82.5t-187 -40v-139h-121v137q-100 9 -188 39t-161 81.5t-117 132.5t-46 182zM348 1032q0 -40 15 -71.5t37 -51t58 -34.5t67 -23t75 -16v407q-47 -4 -89.5 -18t-80 -38t-60 -64t-22.5 -91z M721 190q274 33 274 218q0 24 -3.5 45t-12 38t-16 30.5t-24.5 25.5t-27 20t-33.5 16.5t-35 13t-40 11t-39.5 9t-43 8.5v-435z" />
<glyph unicode="%" horiz-adv-x="1798" d="M72 1106q0 86 30.5 155t80 111.5t113 65.5t129.5 23t129.5 -23t113 -65.5t80 -111.5t30.5 -155q0 -85 -30.5 -154t-80 -111.5t-113 -65.5t-129.5 -23t-129.5 23t-113 65.5t-80 111.5t-30.5 154zM254 1106q0 -62 25.5 -107.5t63.5 -66t83 -20.5t83 21t63.5 66t25.5 107 q0 54 -19 96t-49.5 63.5t-67 31.5t-73 0t-67 -31.5t-49.5 -63.5t-19 -96zM434 0l703 1432h213l-705 -1432h-211zM1020 322q0 85 30.5 153.5t80 111t113 65.5t129.5 23t129.5 -23t113 -65t80 -111t30.5 -154q0 -113 -52.5 -196t-130.5 -120.5t-170 -37.5t-170 37.5 t-130.5 120.5t-52.5 196zM1200 322q0 -62 25.5 -107.5t64 -66t83.5 -20.5t83.5 20.5t64 66t25.5 107.5t-25.5 107t-64 65t-83.5 20t-83.5 -20.5t-64 -65.5t-25.5 -106z" />
<glyph unicode="&#x26;" horiz-adv-x="1320" d="M102 432q0 135 68.5 233t191.5 146q-81 41 -126 117t-43 170q0 160 121.5 268.5t324.5 108.5q209 -1 314 -95t116 -284h-199q-11 98 -68.5 149t-160.5 51q-115 -1 -175 -55t-60 -143q0 -102 74.5 -153.5t205.5 -51.5v-193h-72q-125 0 -201.5 -69.5t-76.5 -190.5 q0 -115 83 -188.5t210 -73.5q134 0 206 76t72 207v430h344v-184h-141v-246q0 -227 -126.5 -355.5t-354.5 -128.5q-124 0 -225 36.5t-166.5 99.5t-100.5 145t-35 174z" />
<glyph unicode="'" horiz-adv-x="456" d="M145 983v451h181l-29 -451h-152z" />
<glyph unicode="(" horiz-adv-x="675" d="M85 579q-1 158 28.5 315t85.5 290.5t146.5 242.5t205.5 170l76 -135q-106 -71 -180 -213t-106.5 -312.5t-30.5 -362t38 -361t108.5 -309.5t170.5 -209l-76 -137q-112 62 -201 171.5t-146 243.5t-87.5 291t-31.5 315z" />
<glyph unicode=")" horiz-adv-x="675" d="M49 -305q101 71 174 213t108 311.5t35.5 360t-33 360t-107 310.5t-177.5 212l76 135q152 -80 259.5 -242t156.5 -357.5t48.5 -416t-51 -417t-157.5 -360.5t-256 -246z" />
<glyph unicode="*" horiz-adv-x="858" d="M104 1169l46 150l208 -78l-12 213h166l-14 -213l202 82l50 -152l-207 -59l149 -178l-133 -96l-129 182l-129 -184l-131 100l149 172z" />
<glyph unicode="+" horiz-adv-x="978" d="M115 659v181h282v280h187v-280h280v-181h-280v-280h-187v280h-282z" />
<glyph unicode="," horiz-adv-x="528" d="M129 96q0 56 38.5 90.5t96.5 34.5q80 0 114.5 -57t6.5 -131l-74 -228h-127l41 170q-43 11 -69.5 43t-26.5 78z" />
<glyph unicode="-" d="M131 586v192h690v-192h-690z" />
<glyph unicode="." horiz-adv-x="532" d="M129 102q0 59 39 94t98 35t98 -35t39 -94q0 -56 -39.5 -91.5t-97.5 -35.5t-97.5 35.5t-39.5 91.5z" />
<glyph unicode="/" horiz-adv-x="1040" d="M59 2l693 1432h229l-694 -1432h-228z" />
<glyph unicode="0" horiz-adv-x="1343" d="M139 467v496q0 224 153 358.5t382 134.5q147 0 267 -58.5t191.5 -172t71.5 -262.5v-496q0 -113 -41.5 -207t-113.5 -156.5t-168.5 -96.5t-206.5 -34q-111 0 -208.5 34t-170 96.5t-114.5 156.5t-42 207zM365 528q0 -63 14 -135q23 -100 102.5 -154.5t192.5 -54.5t191.5 54 t101.5 155q14 72 14 135v371q0 63 -14 135q-23 102 -101.5 157.5t-191.5 55.5t-192.5 -55.5t-102.5 -157.5q-14 -72 -14 -135v-371z" />
<glyph unicode="1" horiz-adv-x="911" d="M96 0v184h262v1061h-229v189h459v-1250h266v-184h-758z" />
<glyph unicode="2" horiz-adv-x="1099" d="M88 0v51l563 735q46 55 74 121t31.5 129t-15 115.5t-71 84.5t-131.5 32q-104 0 -165 -62.5t-67 -173.5h-192q5 205 113.5 311t318.5 107q154 0 256.5 -69t138.5 -181.5t6 -247.5q-26 -132 -127 -260l-383 -495h553v-197h-903z" />
<glyph unicode="3" horiz-adv-x="1179" d="M94 403h211q10 -106 80 -163.5t184 -63.5q141 1 216.5 75.5t70.5 203.5q-2 59 -22.5 107t-54.5 79.5t-78 53t-93.5 30t-101 6.5t-100.5 -14v41l331 481h-585v193h907v-37l-363 -516q115 -5 202 -66.5t130 -155t43 -200.5q0 -134 -58 -242.5t-172.5 -174t-267.5 -65.5 q-201 0 -334 115t-145 313z" />
<glyph unicode="4" horiz-adv-x="1216" d="M55 301v107l678 1026h244v-938h139v-195h-139v-301h-217v301h-705zM336 487h438v318l12 350h-4z" />
<glyph unicode="5" horiz-adv-x="1187" d="M111 395h219q10 -109 80 -165t180 -56q116 0 197 70.5t85 208.5q2 79 -24 137.5t-68.5 92t-104.5 52t-124 22.5t-136.5 -1.5t-132.5 -15t-120 -23.5v717h846v-201h-652v-318q94 21 193 21q118 -2 213 -28.5t171.5 -80.5t118.5 -147.5t42 -220.5q0 -98 -33.5 -184.5 t-96 -154t-160.5 -106.5t-220 -39q-197 0 -326.5 112t-146.5 308z" />
<glyph unicode="6" horiz-adv-x="1224" d="M90 457q0 156 92 297l434 688h265l-351 -557q59 33 129 33q217 5 355.5 -119t138.5 -342q0 -94 -27 -172t-75 -134t-114.5 -95t-146 -57.5t-169.5 -18.5q-89 0 -168.5 18.5t-146 57.5t-114.5 95t-75 134t-27 172zM324 457q0 -130 82 -202.5t215 -72.5q134 0 215.5 72 t81.5 203q0 130 -82 203t-215 73q-134 0 -215.5 -72.5t-81.5 -203.5z" />
<glyph unicode="7" horiz-adv-x="1083" d="M72 1223v211h991v-35l-637 -1399h-242l555 1223h-667z" />
<glyph unicode="8" horiz-adv-x="1267" d="M102 428q0 128 68 226t186 153q-161 96 -161 272q-5 159 118 268t322 109q196 0 319 -106.5t123 -266.5q0 -89 -45.5 -159t-122.5 -117q118 -55 186.5 -152t69.5 -223q0 -196 -145.5 -325.5t-384.5 -129.5q-237 0 -385 129t-148 322zM336 434q0 -114 86.5 -185t212.5 -71 t212.5 72t86.5 188q0 119 -86.5 191.5t-214.5 72.5q-126 0 -211.5 -74.5t-85.5 -193.5zM403 1071q0 -86 67 -139t163 -53q101 0 166 52.5t65 141.5q0 88 -66 141.5t-163 53.5q-100 0 -166 -54t-66 -143z" />
<glyph unicode="9" horiz-adv-x="1218" d="M72 989q0 94 27 172t75 134t114.5 95t146 57.5t169.5 18.5q89 0 168.5 -18.5t146 -57.5t114.5 -95t75 -134t27 -172q0 -155 -97 -303l-432 -686h-260l361 563q-59 -35 -136 -35q-220 -5 -359.5 119t-139.5 342zM307 989q0 -130 82 -203t215 -73q132 0 213.5 73t81.5 203 t-81 202.5t-214 72.5q-134 0 -215.5 -72t-81.5 -203z" />
<glyph unicode=":" horiz-adv-x="536" d="M131 102q0 59 39 94t98 35t98.5 -35.5t39.5 -93.5q0 -56 -40 -91.5t-98 -35.5t-97.5 35.5t-39.5 91.5zM131 762q0 59 39 94t98 35t98.5 -35.5t39.5 -93.5q0 -56 -40 -91.5t-98 -35.5t-97.5 35.5t-39.5 91.5z" />
<glyph unicode=";" horiz-adv-x="538" d="M133 762q0 56 39 90.5t96 34.5t96 -34.5t39 -90.5q0 -55 -39 -90t-96 -35t-96 35t-39 90zM135 96q0 56 38.5 90.5t96.5 34.5q45 0 80 -23t47 -63q6 -21 6 -45q-1 -17 -12 -57l-72 -217h-135l47 159q-43 11 -69.5 43t-26.5 78z" />
<glyph unicode="&#x3c;" horiz-adv-x="1110" d="M94 625v166l846 364v-199l-586 -249l586 -256v-197z" />
<glyph unicode="=" horiz-adv-x="1107" d="M145 385v188h818v-188h-818zM145 772v184h818v-184h-818z" />
<glyph unicode="&#x3e;" horiz-adv-x="1110" d="M170 254v197l586 258l-586 247v199l846 -364v-166z" />
<glyph unicode="?" horiz-adv-x="1030" d="M74 1038q7 198 121 301t299 103q170 5 297.5 -83.5t152.5 -232.5q13 -77 4 -135q-9 -74 -46.5 -138.5t-83.5 -113.5t-90.5 -103t-73.5 -131.5t-27 -172.5h-234q-3 79 10 145.5t37.5 113.5t55.5 86t65 73.5t64 66.5t55.5 72.5t36.5 85.5q16 121 -49.5 189.5t-171.5 68.5 q-81 0 -147 -53.5t-77 -141.5h-198zM373 98q0 56 39.5 90.5t97.5 34.5t95.5 -34.5t37.5 -90.5q0 -55 -38 -90t-95 -35q-58 0 -97.5 35t-39.5 90z" />
<glyph unicode="@" horiz-adv-x="1859" d="M106 487q21 243 146.5 434t328 296.5t445.5 105.5q248 0 427 -101.5t264 -289.5t61 -436q-13 -147 -73.5 -268.5t-155.5 -192t-203 -70.5q-88 0 -127 51.5t-31 141.5l2 30q-50 -97 -142.5 -153t-199.5 -58q-108 0 -191.5 41t-133 111.5t-70.5 162t-11 195.5 q12 124 63.5 223.5t130.5 163t180 96.5t214 31q98 0 213 -43.5t187 -107.5l-52 -588q-7 -69 3 -102.5t46 -34.5q58 0 106.5 60.5t75 143.5t31.5 167q29 320 -139 505t-487 185q-206 0 -375 -88t-273.5 -247.5t-123.5 -363.5q-14 -161 21 -293.5t112 -219.5t185 -133.5 t245 -41t285 63.5l-13 -131q-140 -50 -273 -57.5t-244.5 24t-202.5 101t-151.5 168t-87 232t-12.5 287.5zM666 487q-8 -86 12 -155t76.5 -113.5t142.5 -44.5q83 0 146.5 45.5t97 114t41.5 149.5l24 262q-88 69 -219 72q-125 -5 -217.5 -92.5t-103.5 -237.5z" />
<glyph unicode="A" horiz-adv-x="1439" d="M2 0v31l664 1413h110l660 -1413v-31h-248l-141 297h-656l-139 -297h-250zM469 498h502l-250 573z" />
<glyph unicode="B" horiz-adv-x="1370" d="M178 0v1434h582q202 0 326 -106t124 -302q0 -93 -42.5 -167t-125.5 -114q112 -38 172 -123.5t60 -207.5q0 -192 -122.5 -303t-332.5 -111h-641zM416 209h389q103 0 166 52.5t67 152.5q0 109 -73 170q-60 45 -187 45h-362v-420zM416 823h327q108 0 170.5 48.5t63.5 148.5 q0 103 -63 155t-171 52h-327v-404z" />
<glyph unicode="C" horiz-adv-x="1556" d="M94 715q0 169 59 309.5t159 232.5t232 142.5t279 50.5q107 0 209 -30t190.5 -87.5t154 -150.5t93.5 -211h-229q-52 129 -162.5 194.5t-257.5 67.5q-219 0 -353 -144t-134 -374q0 -142 60 -258.5t172 -185t255 -68.5q152 0 266 73.5t160 212.5h232q-26 -127 -91.5 -225.5 t-156 -158t-194.5 -89.5t-216 -30q-147 0 -278 50t-231 141t-159 230.5t-59 307.5z" />
<glyph unicode="D" horiz-adv-x="1495" d="M180 0v1432h518q162 0 296.5 -58t222 -157t135 -227.5t47.5 -270.5q0 -114 -29 -219.5t-88 -196.5t-142 -158.5t-196.5 -106t-245.5 -38.5h-518zM418 217h276q108 0 197.5 40t148 109t90 159t31.5 192t-32 192.5t-90 159t-147 108.5t-196 40h-278v-1000z" />
<glyph unicode="E" horiz-adv-x="1181" d="M178 0v1434h873v-209h-633v-379h598v-211h-598v-418h645v-217h-885z" />
<glyph unicode="F" horiz-adv-x="1122" d="M178 0v1434h864v-209h-626v-457h569v-211h-569v-557h-238z" />
<glyph unicode="G" horiz-adv-x="1585" d="M94 719q0 167 59 307t159 232t231 143t276 51q148 0 274 -44.5t226.5 -147.5t142.5 -256h-235q-112 233 -410 233q-146 0 -257 -70t-167.5 -186.5t-56.5 -261.5q0 -230 131 -375t350 -145q410 0 463 372h-446v203h671q1 -32 1 -63q0 -187 -52 -326 q-79 -198 -248.5 -300.5t-388.5 -102.5q-147 0 -278 51t-230 144t-157 233.5t-58 308.5z" />
<glyph unicode="H" horiz-adv-x="1488" d="M178 0v1434h238v-576h655v576h240v-1434h-240v639h-655v-639h-238z" />
<glyph unicode="I" horiz-adv-x="856" d="M82 0v193h227v1050h-209v191h656v-191h-209v-1050h227v-193h-692z" />
<glyph unicode="J" horiz-adv-x="1300" d="M63 477v162h224v-158q0 -138 84 -213t223 -75q138 0 221.5 75.5t83.5 212.5v746h-303v207h541v-957q0 -152 -73 -266.5t-195 -172.5t-275 -58q-232 0 -381.5 134t-149.5 363z" />
<glyph unicode="K" horiz-adv-x="1402" d="M178 0v1434h240v-635q68 0 110 1.5t91 10t79 23.5q56 30 91.5 113t72.5 227q16 58 38.5 102.5t59 83.5t85.5 58t118 26q19 2 38 2q54 0 118 -14v-164q-22 2 -42 2q-78 0 -116 -26q-48 -32 -80 -140q-38 -139 -79 -231t-107 -152l471 -686v-35h-270l-410 627 q-61 -23 -268 -23v-604h-240z" />
<glyph unicode="L" horiz-adv-x="1067" d="M178 0v1434h240v-1219h616v-215h-856z" />
<glyph unicode="M" horiz-adv-x="1697" d="M178 0v1438h88l584 -742l582 742h88v-1438h-240v897l-414 -530h-32l-416 530v-897h-240z" />
<glyph unicode="N" horiz-adv-x="1533" d="M178 0v1438h86l871 -965l-17 438v523h238v-1436h-82l-877 977l17 -455v-520h-236z" />
<glyph unicode="O" horiz-adv-x="1648" d="M94 717q0 170 59.5 312t160.5 234.5t232.5 143.5t278.5 51t279 -51t232 -143.5t159 -234.5t59 -312q0 -216 -92.5 -385t-260 -263t-380.5 -94q-148 0 -279.5 51t-231 144t-158 234.5t-58.5 312.5zM336 717q0 -122 38.5 -221t105 -163t155 -98t190.5 -34q101 0 190 34 t156.5 98t106.5 163t39 221q0 120 -39 219t-105.5 163.5t-155.5 100t-190 35.5q-102 0 -191 -35t-156 -99t-105.5 -163.5t-38.5 -220.5z" />
<glyph unicode="P" horiz-adv-x="1335" d="M178 0v1434h594q116 0 213 -40.5t160.5 -110.5t98 -161.5t34.5 -193.5q0 -101 -35.5 -191t-99 -158.5t-160 -108.5t-211.5 -40h-354v-430h-240zM414 639h358q120 0 198.5 84.5t78.5 210.5t-77 209.5t-200 83.5h-358v-588z" />
<glyph unicode="Q" horiz-adv-x="1646" d="M94 719q0 217 92 386t258.5 262t380.5 93q146 0 277.5 -51t232 -143.5t160 -234.5t59.5 -312q0 -280 -147 -465l145 -231v-37h-217l-84 129q-189 -133 -426 -133h-10q-147 0 -278.5 52.5t-229.5 147t-155.5 234t-57.5 303.5zM336 719q0 -122 38.5 -221t105.5 -163 t155.5 -98t189.5 -34q102 0 190 32.5t155.5 95t106 162.5t38.5 226q0 123 -39 222.5t-106 163.5t-156 98t-191 34q-100 0 -188.5 -35.5t-155 -100t-105 -163.5t-38.5 -219z" />
<glyph unicode="R" horiz-adv-x="1396" d="M178 0v1434h592q114 0 208.5 -37t157.5 -100.5t97.5 -148.5t34.5 -181q0 -148 -82 -264t-219 -166l364 -502v-35h-241l-357 500h-315v-500h-240zM414 696h354q117 0 192.5 76t75.5 193q0 113 -75 187.5t-193 74.5h-354v-531z" />
<glyph unicode="S" horiz-adv-x="1325" d="M92 408h234q5 -77 59 -129t126.5 -72.5t156.5 -20.5q49 0 93 6t88.5 22t77 40.5t52.5 64.5t20 91q0 31 -7.5 57t-18.5 45.5t-31 35.5t-37.5 27t-47.5 20.5t-50.5 14.5t-56 10t-55 7t-56.5 6q-85 7 -155.5 21.5t-140.5 44t-118 71.5t-78 107.5t-30 148.5q0 107 44.5 191.5 t120.5 136.5t171 79t202 27q105 0 198 -24.5t169.5 -73t122 -130.5t47.5 -188h-225q-4 55 -33 96t-75.5 63.5t-98 33t-107.5 10.5q-53 0 -103 -11.5t-96 -35t-74 -67t-28 -101.5q0 -26 6.5 -49t15 -39.5t27.5 -31.5t32.5 -24.5t42.5 -19t44.5 -14t52 -11t52 -8.5t55.5 -8 q71 -8 123 -16t114 -23.5t105 -35.5t86.5 -51t69.5 -71t42.5 -96.5t16.5 -125.5q0 -91 -33 -165.5t-88.5 -124t-129.5 -83t-152.5 -48t-161.5 -14.5h-20q-76 -1 -148 13q-82 16 -156 51t-130 85.5t-90 124t-36 161.5z" />
<glyph unicode="T" horiz-adv-x="1142" d="M39 1223v211h1065v-211h-416v-1223h-233v1223h-416z" />
<glyph unicode="U" horiz-adv-x="1443" d="M164 481v953h237v-947q0 -137 91.5 -214.5t232.5 -77.5q140 0 229.5 77.5t89.5 214.5v947h236v-953q0 -117 -43.5 -212t-119.5 -157.5t-176.5 -96t-215.5 -33.5q-156 0 -282 57t-202.5 172t-76.5 270z" />
<glyph unicode="V" horiz-adv-x="1370" d="M29 1399v35h254l204 -496l197 -530h6l189 520l206 506h252v-35l-602 -1411h-98z" />
<glyph unicode="W" horiz-adv-x="1998" d="M49 1399v35h248l156 -484l149 -516h4l344 975h107l344 -973h4l143 514l152 484h252v-35l-477 -1409h-123l-346 919h-5l-346 -919h-131z" />
<glyph unicode="X" horiz-adv-x="1327" d="M23 0v33l497 725l-446 641v35h256l168 -263l161 -268h7l165 275l166 256h254v-35l-444 -641l496 -725v-33h-254l-201 311l-180 293h-9l-176 -287l-207 -317h-253z" />
<glyph unicode="Y" horiz-adv-x="1290" d="M20 1399v35h256l193 -320l172 -330h8l178 340l187 310h254v-35l-504 -817v-582h-238v582z" />
<glyph unicode="Z" horiz-adv-x="1224" d="M43 0v33l481 766l287 426h-707v209l1043 -2v-35l-557 -889l-211 -297h772v-211h-1108z" />
<glyph unicode="[" horiz-adv-x="645" d="M160 -375v1938h405v-183h-196v-1554h196v-201h-405z" />
<glyph unicode="\" horiz-adv-x="1042" d="M59 1434h232l692 -1432h-229z" />
<glyph unicode="]" horiz-adv-x="645" d="M80 -174h196v1554h-196v183h405v-1938h-405v201z" />
<glyph unicode="^" horiz-adv-x="1103" d="M104 838l365 604h162l368 -604h-198l-252 409l-246 -409h-199z" />
<glyph unicode="_" horiz-adv-x="1261" d="M131 -18h999v-191h-999v191z" />
<glyph unicode="`" horiz-adv-x="688" d="M158 1380v21l204 78l162 -301v-23h-186z" />
<glyph unicode="a" horiz-adv-x="1228" d="M84 506q3 161 76 276.5t198 171.5q119 54 271 54h16q196 0 406 -93v-620v-7q0 -33 1 -48.5t6 -36.5t16 -29t31.5 -13.5t51.5 -2.5v-152q-44 -11 -88 -11q-9 1 -17 1q-52 2 -92 15.5t-65 51.5t-25 97v41q-40 -100 -134 -157.5t-206 -57.5q-88 0 -161.5 27.5t-125.5 75.5 t-88.5 113.5t-53.5 142t-17 161.5zM307 506q0 -142 70 -232t201 -90q121 0 187 85t71 227v290q-90 41 -207 41q-145 0 -231.5 -82.5t-90.5 -238.5z" />
<glyph unicode="b" horiz-adv-x="1189" d="M139 66v1419h207v-666q55 93 133 139t191 46q84 0 161 -32t140 -93.5t99 -163.5q34 -97 34 -217v-13q-4 -131 -48.5 -232t-121 -162t-174.5 -91q-92 -28 -200 -27h-15q-188 0 -406 93zM358 201q115 -43 207 -43q144 0 227.5 83t84.5 244v19q0 137 -67 221q-72 90 -200 90 q-64 0 -114 -30t-79 -79t-44 -105.5t-15 -115.5v-284z" />
<glyph unicode="c" horiz-adv-x="1157" d="M84 498q0 124 45.5 225t120.5 163.5t167.5 96t192.5 33.5q169 0 301.5 -93t169.5 -264h-213q-31 77 -101 119q-67 40 -145 39h-8q-124 -2 -216.5 -86t-92.5 -233q0 -101 44 -175.5t110.5 -110t144.5 -36.5h6q54 0 102 18q52 19 95 61t65 101h215q-37 -179 -172.5 -275.5 t-310.5 -96.5q-99 0 -190.5 33t-166 95t-119 162t-44.5 224z" />
<glyph unicode="d" horiz-adv-x="1239" d="M86 506v18q0 74 14 140q16 76 52 141.5t87 114t124 76.5t159 28q234 0 324 -164v647h209q0 -208 -1 -606t-1 -606v-7q0 -33 1 -48.5t6 -36.5t16 -29t31.5 -13.5t51.5 -2.5v-152q-44 -11 -88 -11q-9 1 -17 1q-52 2 -92 15.5t-65 51.5t-25 97v41q-40 -100 -134 -157.5 t-206 -57.5q-88 0 -161.5 27.5t-125.5 75.5t-88.5 113.5t-53.5 142t-17 161.5zM309 506q0 -142 70 -232t201 -90q125 0 192.5 88t67.5 234q0 143 -69.5 237.5t-195.5 94.5q-129 0 -197.5 -94.5t-68.5 -237.5z" />
<glyph unicode="e" horiz-adv-x="1110" d="M86 520q2 116 44 210t111.5 154t158 93t188.5 35h17q75 0 145 -16q78 -18 143 -56t103 -105q34 -61 34 -138v-17q-4 -71 -37 -127.5t-87 -91t-119 -53.5t-138 -21q-15 -1 -29 -1q-80 0 -160 19q-94 22 -163 64v-11q0 -142 97 -221q95 -77 249 -77h19q168 0 325 73l6 -176 q-75 -38 -157.5 -54t-188.5 -21h-28q-245 0 -391 136q-142 134 -143 365q0 18 1 37zM313 618q53 -37 134 -57t161 -20q77 0 140 35.5t67 105.5v8q0 50 -34 84q-37 36 -86 49t-105 13q-106 -2 -179.5 -56.5t-97.5 -161.5z" />
<glyph unicode="f" horiz-adv-x="806" d="M47 815v168h186v133q0 113 34 194.5t91.5 125t135.5 60.5q50 11 103 11q31 0 63 -4q87 -10 182 -41l-25 -155q-68 28 -131 34q-16 1 -32 1q-46 0 -86 -13q-54 -18 -86.5 -73.5t-32.5 -143.5v-129h333v-168h-333v-815h-220v815h-182z" />
<glyph unicode="g" horiz-adv-x="1189" d="M86 496q2 105 31 191t79.5 146t120.5 100.5t153 58.5q74 16 157 16h18q196 0 406 -93v-948q0 -127 -39 -225t-105 -157t-155 -91q-87 -31 -183 -31q-2 0 -3 1q-99 0 -203 27.5t-201 80.5l24 186q66 -34 137 -58t146 -36q41 -7 79 -7q32 0 62 5q67 10 119.5 41t83.5 98.5 t31 165.5v193q-42 -90 -124.5 -135t-195.5 -45q-84 0 -161 32t-139.5 93.5t-100 162.5t-37.5 228zM307 496q0 -84 16.5 -138t53.5 -100q79 -92 209 -92q63 0 112 30.5t77 80t42 105.5t14 114v282q-99 45 -206 45q-142 0 -228 -83t-90 -244z" />
<glyph unicode="h" horiz-adv-x="1239" d="M145 0v1495h224v-643q53 78 143 118q79 35 165 35q13 0 25 -1q153 0 252 -95.5t117 -246.5q8 -63 8 -140v-246q0 -75 21 -100q16 -20 67 -20q14 0 31 2l2 -154q-59 -10 -107 -10q-103 0 -158 45q-81 66 -81 223v106v84v60.5v47t-0.5 32t-1.5 26.5t-2 19 q-18 99 -71.5 145.5t-155.5 46.5q-109 0 -181.5 -71t-72.5 -189v-569h-224z" />
<glyph unicode="i" horiz-adv-x="518" d="M125 1292q0 62 40 96.5t95 34.5t94 -35t39 -96q0 -62 -39 -97.5t-92 -35.5q-56 0 -96.5 34.5t-40.5 98.5zM147 0v977h224v-977h-224z" />
<glyph unicode="j" horiz-adv-x="516" d="M-84 -514l8 168q30 -6 55 -6q9 0 17 1q32 3 55.5 8t40 21t27.5 33.5t17 46t8.5 58t2.5 69.5v1098h222v-1100q0 -249 -111 -344q-78 -66 -212 -66q-59 0 -130 13zM123 1292q0 61 39 96t94 35t95 -34.5t40 -96.5q0 -59 -38.5 -93t-92.5 -36h-6q-51 0 -90 33q-41 34 -41 96z " />
<glyph unicode="k" horiz-adv-x="1118" d="M145 0v1497h222v-895h102q178 0 257 100t79 287h211v-28q0 -96 -18 -172q-21 -87 -81 -162.5t-159 -120.5l307 -483v-23h-223l-273 434q-39 -10 -104 -10h-98v-424h-222z" />
<glyph unicode="l" horiz-adv-x="589" d="M135 352v1147h221v-1145q0 -126 44 -167q30 -28 96 -28q32 0 73 7l9 -172q-79 -13 -143 -13q-59 0 -107 11q-98 23 -145.5 110t-47.5 250z" />
<glyph unicode="m" horiz-adv-x="1875" d="M63 846v145q59 17 117 18h7q53 0 99 -16q48 -17 78.5 -59.5t30.5 -106.5q45 89 135 136q86 45 185 45h8q102 -2 180 -49t115 -138q58 97 151 145q89 46 194 46h9q340 0 340 -432v-316q0 -39 2.5 -58t13.5 -39.5t37 -26.5q12 -3 29 -3q18 0 41 4v-137q-72 -16 -130 -16 q-28 0 -53 4q-77 11 -121 71.5t-44 169.5v347v9q0 109 -47 173q-49 68 -144 67q-104 -2 -166.5 -71t-62.5 -185v-573h-219v573v9q0 114 -50 178q-52 68 -153 67q-106 -2 -171.5 -71.5t-65.5 -186.5v-569h-226v674q0 40 -0.5 59.5t-4 44.5t-11 35.5t-20.5 21t-33.5 12.5 t-49.5 -1z" />
<glyph unicode="n" horiz-adv-x="1267" d="M63 991q50 14 100 14h17q58 -3 105 -20t75.5 -58t28.5 -100q46 91 133.5 137t196.5 46q195 0 295 -116q96 -110 96 -288v-18v-352q0 -58 23 -78q17 -15 59 -15q15 0 33 2v-141q-59 -12 -107 -14h-15q-40 0 -77 9q-44 11 -73 37t-46.5 74t-17.5 117v353q0 114 -67 181.5 t-169 67.5q-107 0 -178.5 -69.5t-71.5 -186.5v-573h-223v686v20q0 53 -1.5 74t-12.5 42.5t-34 25.5q-12 2 -28 2t-38 -2z" />
<glyph unicode="o" horiz-adv-x="1210" d="M84 498q0 125 45.5 226t121 162.5t168.5 93.5q90 32 187 32h6q103 -1 194.5 -34t163.5 -95.5t114 -162t42 -222.5q0 -125 -44.5 -226t-119.5 -163q-76 -62 -168 -95q-90 -32 -186 -32h-6q-100 1 -191 34.5t-165 95.5t-118 162t-44 224zM305 498q0 -77 25.5 -139.5 t68 -101t95.5 -59t110 -20.5t110 20.5t95.5 59t68 101t25.5 139.5q0 149 -85.5 233t-205.5 84q-58 0 -112 -20t-98 -57.5t-70.5 -99.5t-26.5 -140z" />
<glyph unicode="p" horiz-adv-x="1232" d="M72 846v151q44 12 88 12q8 0 16 -1q51 -2 92 -15.5t66.5 -51.5t25.5 -97v-37q39 98 133.5 154.5t204.5 56.5q88 0 162 -27.5t126.5 -76t89 -114.5t54 -142t17.5 -160q0 -103 -27.5 -195t-80.5 -165t-138.5 -115.5t-193.5 -42.5q-246 0 -324 176v-660h-207v1166v13 q0 33 -0.5 49.5t-3 42.5t-9 38t-18 25t-30 16.5t-43.5 -0.5zM393 504q0 -93 27.5 -168t87.5 -122.5t145 -47.5q134 0 203.5 92.5t69.5 239.5q0 140 -72.5 229.5t-200.5 89.5q-125 0 -192.5 -86.5t-67.5 -226.5z" />
<glyph unicode="q" horiz-adv-x="1191" d="M86 496q0 130 44.5 231t122 162t177.5 91q93 28 199 28h14q196 0 410 -93v-1419h-207v666q-68 -182 -320 -182q-85 0 -162.5 32t-140 93.5t-100 162.5t-37.5 228zM309 496q0 -145 75.5 -237.5t201.5 -92.5q64 0 113 30.5t76.5 80t41.5 105.5t14 114v282q-105 45 -206 45 q-144 0 -228 -82.5t-88 -244.5z" />
<glyph unicode="r" horiz-adv-x="923" d="M70 995q48 13 96 13h13q55 -2 99.5 -16t73.5 -52t33 -96q28 82 111.5 129t179.5 47h10q123 0 217 -70l-55 -192q-89 59 -197 59q-105 0 -178.5 -65.5t-73.5 -180.5v-571h-221v717q0 24 -0.5 35.5t-2 29t-5.5 25t-11.5 17.5t-19 13.5t-28 5.5t-39.5 1z" />
<glyph unicode="s" horiz-adv-x="1040" d="M76 291h219q4 -72 71 -111t154 -39q44 0 82.5 7t73.5 23t56.5 47.5t23.5 74.5q0 62 -55.5 90.5t-165.5 42.5q-175 23 -241 44q-159 49 -189 170q-6 27 -7 58q0 61 23 113t63 87.5t93.5 60.5t114 37t126.5 12q117 0 212 -32q94 -34 152 -102q56 -65 56 -154v-9h-197 q0 67 -66 98t-157 31q-83 0 -145 -38q-58 -36 -58 -93v-7q1 -57 54 -80t182 -38q54 -7 88.5 -12.5t82 -17t77.5 -24.5t63 -35.5t52 -50t31.5 -67t12.5 -88.5q0 -79 -36 -141t-97.5 -98.5t-136.5 -55.5t-160 -19q-69 0 -130 9t-119 31.5t-100.5 57.5t-70 91t-32.5 127z" />
<glyph unicode="t" horiz-adv-x="884" d="M43 840v145h201l22 305h197v-305h342v-160h-342v-444q0 -92 27 -147q28 -55 78 -73q37 -13 80 -14q16 1 32 3q62 6 143 34l23 -168q-130 -40 -237 -42h-8q-102 0 -182 38q-83 39 -129 131.5t-46 233.5v448z" />
<glyph unicode="u" horiz-adv-x="1220" d="M133 416v571h225v-571q-1 -118 56.5 -186t156.5 -68q108 0 179 71.5t71 188.5v565h223v-704q0 -93 18 -121q15 -22 62 -22q12 0 25 1l2 -145q-41 -7 -68 -10.5t-67 -4.5h-8q-35 1 -59 9q-27 10 -53 28t-39 54.5t-13 87.5q-90 -176 -342 -176q-99 0 -172 33t-115 93 t-62 136t-20 170z" />
<glyph unicode="v" horiz-adv-x="1183" d="M35 854v141q67 14 121 14q219 0 219 -231v-360q0 -111 65 -181.5t174 -70.5q76 0 129.5 34t79 90t35.5 130q6 46 5 93q0 29 -2 59q-6 78 -21 157.5t-34 144t-40 115.5h221q32 -91 55 -181q22 -92 34 -192q9 -73 8 -139v-49q-4 -88 -33.5 -170t-82 -140t-142.5 -93 t-212 -35q-209 0 -336.5 113.5t-127.5 314.5v248v24v43t-2 36t-6.5 32.5t-12.5 24t-20.5 19t-31 8.5t-42.5 1z" />
<glyph unicode="w" horiz-adv-x="1740" d="M37 858v137q59 14 111 14q12 -1 22 -1q62 -4 108 -24t72.5 -72t26.5 -134v-364q0 -111 57 -179.5t150 -68.5q96 0 150 66q52 64 52 174v8v573h209v-573v-8q0 -110 52 -174q54 -66 151 -66q82 0 134 46t70 121t20 165v15q0 83 -16 169q-16 94 -36.5 172t-42.5 135h215 q26 -75 46.5 -154t35.5 -173t17 -180q0 -9 1 -18q0 -78 -16 -152q-17 -84 -53 -147t-104 -107t-162 -56q-46 -9 -90 -9q-80 0 -155 30q-117 47 -169 159q-41 -98 -129.5 -145t-200.5 -47q-187 0 -298 113.5t-111 304.5v260v28v41.5t-2 36.5t-6 31t-12.5 25t-21 18t-31.5 9.5 t-44 0.5z" />
<glyph unicode="x" horiz-adv-x="1042" d="M29 0v25l366 499l-311 439v24h213l113 -156l108 -167h6l107 163l117 160h225v-24l-324 -453l355 -485v-25h-216l-145 201l-115 184h-6l-121 -188l-147 -197h-225z" />
<glyph unicode="y" horiz-adv-x="1228" d="M35 985q68 14 123 14q223 0 223 -239v-287q0 -305 235 -305q61 0 107 27t72 67.5t41.5 97t20.5 105.5t5 104v418h221v-1024q0 -124 -39 -221t-105.5 -156t-155 -91t-187 -32t-202 27t-199.5 80l12 174q64 -34 136 -56.5t147 -32.5q33 -4 64 -4q41 0 80 7q68 13 122 45.5 t86 99t32 160.5v191q-76 -172 -299 -172h-5q-412 0 -412 489v234q0 78 -23 107q-19 23 -71 23q-12 0 -27 -1q0 22 -1 76t-1 75z" />
<glyph unicode="z" horiz-adv-x="960" d="M61 0v45l287 449l215 311h-471v182h793v-29l-305 -473l-201 -292h504v-193h-822z" />
<glyph unicode="{" horiz-adv-x="643" d="M74 543v166q36 4 59.5 21t34.5 46.5t14.5 58t3.5 66.5v391q0 57 9.5 100.5t25 74t42.5 52.5t54.5 34t69 19t78.5 9t90 2v-162q-84 0 -122 -28.5t-38 -108.5v-403q0 -90 -30.5 -160t-100.5 -96q75 -30 103 -97.5t28 -165.5v-425q0 -80 39.5 -106.5t120.5 -20.5v-183 q-55 0 -92.5 2t-79.5 9t-69 19.5t-53.5 35t-41.5 54t-24 77t-9 104.5v416q0 187 -112 199z" />
<glyph unicode="|" horiz-adv-x="534" d="M166 -170v1614h203v-1614h-203z" />
<glyph unicode="}" horiz-adv-x="643" d="M88 -190q81 -6 120.5 20.5t39.5 106.5v425q0 208 139 263q-72 27 -105.5 97.5t-33.5 158.5v403q0 80 -38 108.5t-122 28.5v162q53 0 90 -2t78.5 -9t69 -19t54.5 -34t42.5 -52.5t25 -74t9.5 -100.5v-391q0 -38 3.5 -66.5t14.5 -58t34.5 -46.5t59.5 -21v-166 q-112 -12 -112 -199v-416q0 -59 -9 -104.5t-24 -77t-41.5 -54t-53.5 -35t-69 -19.5t-79.5 -9t-92.5 -2v183z" />
<glyph unicode="~" horiz-adv-x="1265" d="M113 639q40 119 126.5 181t193 59t214.5 -64q44 -28 80.5 -46.5t81.5 -30t80.5 -6t69.5 34.5t57 83l147 -72q-133 -373 -528 -168q-49 26 -86.5 42.5t-84 26.5t-82.5 3.5t-71.5 -35t-60.5 -80.5z" />
<glyph unicode="&#xa2;" horiz-adv-x="1226" d="M119 496q0 82 20 155t56 128t84.5 100.5t105.5 73t119.5 45.5t126 17t125.5 -11l53 151h100l-61 -180q103 -43 172.5 -123t93.5 -197l-207 -6q-40 91 -127 131l-205 -598q71 -14 137.5 -1t122.5 62t80 122l211 -5q-17 -88 -61.5 -159.5t-105.5 -116.5t-136 -73.5 t-153.5 -30t-157.5 13.5l-53 -156h-105l62 185q-132 58 -214.5 179.5t-82.5 293.5zM340 496q0 -94 40 -163t107 -110l203 588q-84 12 -163 -19.5t-133 -109.5t-54 -186z" />
<glyph unicode="&#xa3;" horiz-adv-x="1361" d="M96 672v125h172q-33 163 -8.5 285t98 204t181 123t241.5 41q222 3 424 -111l-76 -178q-68 47 -162 71.5t-186 18.5q-110 -6 -180 -41.5t-99 -95t-33 -140t19 -177.5h463v-154h-444q26 -143 10 -237q-18 -118 -72 -193q54 26 123 26t124.5 -15.5t126.5 -31.5t118 -16 q75 0 110 44t29 159h189q21 -190 -48 -293.5t-235 -103.5q-53 0 -149.5 20.5t-172.5 37.5t-157.5 10t-128.5 -52h-273v22q97 91 140 181t47 211q3 121 -15 231h-174v29h-2z" />
<glyph unicode="&#xa5;" horiz-adv-x="1210" d="M70 1401v33h256l147 -334l129 -328l135 334l148 328h256v-33l-373 -733h225v-150h-272v-108h272v-152h-272v-258h-229v258h-277v152h277v108h-277v150h225z" />
<glyph unicode="&#xa8;" horiz-adv-x="1042" d="M137 1333q0 55 37 88t94 33q55 0 93 -33.5t38 -87.5q0 -53 -38 -86t-93 -33q-56 0 -93.5 33t-37.5 86zM637 1333q0 55 37 88t94 33t94 -33t37 -88q0 -53 -37.5 -86t-93.5 -33t-93.5 33t-37.5 86z" />
<glyph unicode="&#xa9;" horiz-adv-x="1619" d="M111 711q0 170 60 307t158.5 221.5t224 130t256.5 45.5t256.5 -45.5t224 -130t158.5 -221.5t60 -307t-60 -307.5t-158.5 -222t-224 -130.5t-256.5 -46t-256.5 46t-224 130.5t-158.5 222t-60 307.5zM276 711q0 -135 46 -244.5t121 -176.5t170.5 -103t196 -36t196 37 t170.5 104t121 176t46 243q0 135 -46 244.5t-121 177t-170.5 104t-196 36.5t-196 -36.5t-170.5 -104t-121 -177t-46 -244.5zM485 709q0 100 42.5 175.5t107.5 114t143 47.5t149 -13.5t126 -80.5t73 -143l-133 -4q-14 43 -47 71t-73 37t-83 0.5t-78 -33t-58 -69.5t-23 -102 q0 -43 20 -72q20 -63 69.5 -98.5t103.5 -37.5t103.5 30.5t69.5 93.5l136 -4q-18 -86 -73.5 -146t-127 -84t-151 -16t-145 45.5t-108.5 113t-43 175.5z" />
<glyph unicode="&#xab;" horiz-adv-x="1038" d="M98 709l293 479l133 -53l-207 -426l207 -422l-133 -54zM492 709l292 479l134 -53l-207 -426l207 -422l-134 -54z" />
<glyph unicode="&#xad;" d="M131 586v192h690v-192h-690z" />
<glyph unicode="&#xae;" horiz-adv-x="1613" d="M111 717q0 170 60 307t158 221.5t223 130t256 45.5t256 -45.5t223 -130t158 -221.5t60 -307t-60 -307.5t-158 -222t-223 -130.5t-256 -46t-256 46t-223 130.5t-158 222t-60 307.5zM274 717q0 -135 46 -244.5t121 -176.5t170.5 -103t196 -36t196 37t170.5 104t121 176 t46 243q0 135 -46 244.5t-121 177t-170.5 104t-196 36.5t-196 -36.5t-170.5 -104t-121 -177t-46 -244.5zM575 385v668h285q107 0 174.5 -60.5t67.5 -167.5q0 -71 -37 -124.5t-104 -71.5l159 -221v-23h-141l-152 225h-116v-225h-136zM711 723h137q52 0 85.5 28.5t33.5 75.5 q0 45 -33 75t-86 30h-137v-209z" />
<glyph unicode="&#xb4;" horiz-adv-x="620" d="M127 1143v22l162 301l205 -77v-21l-181 -225h-186z" />
<glyph unicode="&#xb8;" horiz-adv-x="802" d="M180 -410l10 123q35 -28 91 -44.5t108 -7t66 51.5q13 40 -13.5 72.5t-67.5 47t-77 11.5l47 183h168l-31 -125q99 -7 139.5 -75.5t14.5 -158.5q-20 -63 -75 -99t-122 -41.5t-136.5 11t-121.5 51.5z" />
<glyph unicode="&#xbb;" horiz-adv-x="1038" d="M121 287l207 422l-207 426l133 53l293 -479l-293 -476zM514 287l207 422l-207 426l133 53l293 -479l-293 -476z" />
<glyph unicode="&#x2c6;" horiz-adv-x="1011" d="M119 1128v23l289 287h225l287 -289v-21h-222l-178 175l-178 -175h-223z" />
<glyph unicode="&#x2da;" horiz-adv-x="776" d="M139 1255q0 72 36.5 125.5t90.5 77.5t118 24t118 -24t90.5 -77.5t36.5 -125.5q0 -62 -27 -111t-70 -74.5t-95.5 -37t-105 0t-95.5 37t-70 74.5t-27 111zM264 1255q0 -51 37.5 -80.5t82.5 -29.5t82.5 29.5t37.5 80.5q0 50 -37.5 78.5t-82.5 28.5t-82.5 -28.5t-37.5 -78.5z " />
<glyph unicode="&#x2dc;" horiz-adv-x="905" d="M109 1274q59 133 151 173.5t223 -24.5q34 -21 60 -31.5t55.5 -13.5t53.5 15t42 57q69 -30 119 -57q-48 -132 -138.5 -174.5t-213.5 20.5q-172 103 -234 -25z" />
<glyph unicode="&#x401;" horiz-adv-x="1181" d="M178 0v1434h873v-209h-633v-379h598v-211h-598v-418h645v-217h-885zM238 1686q0 54 37 87t94 33q56 0 93.5 -33t37.5 -87q0 -53 -38 -86t-93 -33q-56 0 -93.5 33t-37.5 86zM737 1686q0 54 37 87t94 33t94 -33t37 -87q0 -53 -37.5 -86t-93.5 -33t-93.5 33t-37.5 86z" />
<glyph unicode="&#x402;" horiz-adv-x="1538" d="M39 1225v209h1091v-209h-468v-426q44 81 147 125.5t217 44.5q202 0 312 -121.5t110 -319.5v-321q0 -248 -111 -340.5t-340 -50.5l7 168q36 -5 64 -6t50.5 3.5t39 13t28.5 23.5t19.5 33t12 43t6 52t1.5 63v319q0 119 -74.5 185.5t-189.5 68.5q-116 2 -205.5 -79 t-93.5 -193v-510h-232v1225h-391z" />
<glyph unicode="&#x403;" horiz-adv-x="1062" d="M178 0v1434h854v-211h-614v-1223h-240zM496 1569v22l190 314l203 -74v-21l-211 -241h-182z" />
<glyph unicode="&#x404;" horiz-adv-x="1556" d="M94 717q0 169 58 309.5t157 233t229.5 143t276.5 49.5q148 0 279 -50.5t234 -161.5t140 -269h-231q-54 129 -166 197.5t-256 68.5q-193 2 -328.5 -116t-152.5 -306h586v-203h-582q22 -187 157.5 -301t327.5 -112q152 0 267.5 74.5t160.5 213.5h234q-26 -126 -91.5 -224.5 t-156 -158t-195 -90t-217.5 -30.5q-117 -1 -225 28.5t-200.5 90.5t-160.5 147t-106.5 206t-38.5 261z" />
<glyph unicode="&#x405;" horiz-adv-x="1325" d="M92 408h234q5 -77 59 -129t126.5 -72.5t156.5 -20.5q49 0 93 6t88.5 22t77 40.5t52.5 64.5t20 91q0 31 -7.5 57t-18.5 45.5t-31 35.5t-37.5 27t-47.5 20.5t-50.5 14.5t-56 10t-55 7t-56.5 6q-85 7 -155.5 21.5t-140.5 44t-118 71.5t-78 107.5t-30 148.5q0 107 44.5 191.5 t120.5 136.5t171 79t202 27q105 0 198 -24.5t169.5 -73t122 -130.5t47.5 -188h-225q-4 55 -33 96t-75.5 63.5t-98 33t-107.5 10.5q-53 0 -103 -11.5t-96 -35t-74 -67t-28 -101.5q0 -26 6.5 -49t15 -39.5t27.5 -31.5t32.5 -24.5t42.5 -19t44.5 -14t52 -11t52 -8.5t55.5 -8 q71 -8 123 -16t114 -23.5t105 -35.5t86.5 -51t69.5 -71t42.5 -96.5t16.5 -125.5q0 -91 -33 -165.5t-88.5 -124t-129.5 -83t-152.5 -48t-161.5 -14.5q-86 -2 -168 13.5t-156 50.5t-130 85.5t-90 124t-36 161.5z" />
<glyph unicode="&#x406;" horiz-adv-x="856" d="M82 0v193h227v1050h-209v191h656v-191h-209v-1050h227v-193h-692z" />
<glyph unicode="&#x407;" horiz-adv-x="856" d="M82 0v193h227v1050h-209v191h656v-191h-209v-1050h227v-193h-692zM82 1677q0 55 37 88t94 33q55 0 93 -33.5t38 -87.5q0 -53 -38 -85.5t-93 -32.5q-57 0 -94 32.5t-37 85.5zM518 1677q0 55 37 88t94 33t94 -33t37 -88q0 -53 -37 -85.5t-94 -32.5t-94 32.5t-37 85.5z" />
<glyph unicode="&#x408;" horiz-adv-x="1300" d="M63 477v162h224v-158q0 -138 84 -213t223 -75q138 0 221.5 75.5t83.5 212.5v746h-303v207h541v-957q0 -152 -73 -266.5t-195 -172.5t-275 -58q-232 0 -381.5 134t-149.5 363z" />
<glyph unicode="&#x409;" horiz-adv-x="2029" d="M31 4l4 176q139 -22 191 48q35 47 53 179q3 19 8 60l102 967h801v-469h280q126 0 228 -45.5t164.5 -121t90.5 -173.5t15 -203q-19 -184 -154.5 -303t-345.5 -119h-505v1221h-363q-9 -77 -76 -766q-8 -73 -17.5 -128t-24.5 -106t-34 -86.5t-46 -64.5t-62 -45.5t-80.5 -25 t-102 -7t-126.5 11.5zM1190 211q39 0 110 -1t105 -1q52 1 94 7t89.5 23t80 44t53.5 74.5t21 111.5q0 157 -87.5 220t-250.5 63h-215v-541z" />
<glyph unicode="&#x40a;" horiz-adv-x="2035" d="M178 0v1434h240v-529h547v529h231v-521h281q232 0 368.5 -128t134.5 -324q0 -95 -35 -179t-99 -146.5t-160 -99t-211 -36.5h-510v686h-547v-686h-240zM1196 211q139 -3 279 0q130 3 205 77.5t69 190.5q-7 105 -81.5 164t-192.5 59h-279v-491z" />
<glyph unicode="&#x40b;" horiz-adv-x="1540" d="M39 1225v209h1091v-209h-468v-426q55 90 152 131t212 41q201 0 311.5 -122.5t110.5 -320.5v-528h-223v528q0 119 -74.5 185.5t-189.5 68.5q-116 2 -205.5 -80t-93.5 -194v-508h-232v1225h-391z" />
<glyph unicode="&#x40c;" horiz-adv-x="1402" d="M178 0v1434h240v-635q68 0 110 1.5t91 10t79 23.5q56 30 91.5 113t72.5 227q16 58 38.5 102.5t59 83.5t85.5 58t118 26t156 -12v-164q-110 8 -158 -24t-80 -140q-38 -139 -79 -231t-107 -152l471 -686v-35h-270l-410 627q-61 -23 -268 -23v-604h-240zM592 1569v22 l188 314l203 -74v-21l-211 -241h-180z" />
<glyph unicode="&#x40e;" horiz-adv-x="1286" d="M18 1405v29h263l378 -715h9l342 715h254v-25l-566 -1128q-38 -82 -74.5 -139t-86 -102.5t-106.5 -63t-134 -11t-170 42.5l33 199q111 -48 182 -19t121 136l76 153zM307 1855l166 17q9 -66 55.5 -98.5t122.5 -34.5q165 0 187 133q77 -7 153 -17q-12 -142 -98 -225.5 t-240 -83.5q-151 0 -243 84t-103 225z" />
<glyph unicode="&#x40f;" horiz-adv-x="1486" d="M178 0v1434h240v-1217h651v1217h240v-1434h-447v-285h-229v285h-455z" />
<glyph unicode="&#x410;" horiz-adv-x="1439" d="M2 0v31l664 1413h110l660 -1413v-31h-248l-141 297h-656l-139 -297h-250zM469 498h502l-250 573z" />
<glyph unicode="&#x411;" horiz-adv-x="1349" d="M178 0v1434h977v-211h-741v-340h356q245 0 374.5 -121t129.5 -313q0 -94 -32 -174.5t-93.5 -142t-158.5 -97t-220 -35.5h-592zM414 211q38 0 111.5 -0.5t133.5 -0.5t111 1q129 0 199.5 67t70.5 168q0 103 -70 169.5t-200 66.5h-356v-471z" />
<glyph unicode="&#x412;" horiz-adv-x="1370" d="M178 0v1434h582q203 0 326.5 -104t123.5 -300q0 -93 -42.5 -164t-125.5 -112q112 -38 172 -124t60 -208q0 -192 -123 -307t-332 -115h-641zM416 209h389q102 0 165.5 56t67.5 157q0 109 -73 170q-60 45 -187 45h-362v-428zM416 831h327q231 0 234 193q0 102 -62.5 152.5 t-171.5 50.5h-327v-396z" />
<glyph unicode="&#x413;" horiz-adv-x="1062" d="M178 0v1434h854v-211h-614v-1223h-240z" />
<glyph unicode="&#x414;" horiz-adv-x="1503" d="M27 203h149l514 1245h101l532 -1245h156v-420h-193v217h-1065v-217h-194v420zM416 207h665l-340 846h-2z" />
<glyph unicode="&#x415;" horiz-adv-x="1181" d="M178 0v1434h873v-209h-633v-379h598v-211h-598v-418h645v-217h-885z" />
<glyph unicode="&#x416;" horiz-adv-x="2050" d="M37 0v35q45 65 212.5 309.5t258.5 376.5q-44 39 -80 107t-54.5 124t-45.5 154q-28 98 -86 136.5t-158 23.5v164q184 37 300 -23.5t157 -235.5q40 -151 72 -214q40 -77 92 -107q71 -41 202 -41v625h236v-625q132 0 203 41q27 15 50 44t38 55.5t30.5 71t22 67t18.5 67.5 q1 4 1.5 5.5t1 5t1.5 5.5q76 335 457 259v-164q-98 15 -156.5 -23.5t-89.5 -136.5q-39 -146 -77 -237t-101 -148q298 -437 471 -686v-35h-270q-324 495 -408 625q-79 -29 -192 -29v-596h-236v596q-113 0 -190 29q-79 -121 -228 -348t-182 -277h-270z" />
<glyph unicode="&#x417;" horiz-adv-x="1208" d="M72 438h213q0 -125 82 -193.5t208 -68.5q133 0 216 64.5t83 179.5q0 112 -84.5 181t-211.5 69h-103v192h100q100 0 171 56.5t71 144.5q0 98 -71 153.5t-171 55.5q-99 0 -167 -44.5t-68 -133.5h-221q-2 76 22 138t66.5 104.5t101.5 71.5t125.5 42.5t140.5 13.5 q210 0 338.5 -108t128.5 -287q0 -95 -47.5 -172.5t-132.5 -118.5q252 -97 252 -370q0 -204 -145 -322.5t-394 -118.5q-227 0 -365 123t-138 348z" />
<glyph unicode="&#x418;" horiz-adv-x="1533" d="M178 -2v1436h238v-523l-17 -438l871 965h86v-1438h-236v520l17 455l-877 -977h-82z" />
<glyph unicode="&#x419;" horiz-adv-x="1533" d="M178 -2h82l877 977l-17 -455v-520h236v1438h-86l-871 -965l17 438v523h-238v-1436zM471 1855l166 17q9 -66 55.5 -98.5t122.5 -34.5q164 0 186 133q79 -7 154 -17q-12 -142 -98 -225.5t-240 -83.5q-151 0 -243 84t-103 225z" />
<glyph unicode="&#x41a;" horiz-adv-x="1402" d="M178 0v1434h240v-635q68 0 110 1.5t91 10t79 23.5q56 30 91.5 113t72.5 227q16 58 38.5 102.5t59 83.5t85.5 58t118 26t156 -12v-164q-110 8 -158 -24t-80 -140q-38 -139 -79 -231t-107 -152l471 -686v-35h-270l-410 627q-61 -23 -268 -23v-604h-240z" />
<glyph unicode="&#x41b;" horiz-adv-x="1406" d="M25 0v33l626 1409h103l628 -1409v-33h-231l-446 1047h-3l-448 -1047h-229z" />
<glyph unicode="&#x41c;" horiz-adv-x="1697" d="M178 0v1438h88l584 -742l582 742h88v-1438h-240v897l-414 -530h-32l-416 530v-897h-240z" />
<glyph unicode="&#x41d;" horiz-adv-x="1488" d="M178 0v1434h238v-576h655v576h240v-1434h-240v639h-655v-639h-238z" />
<glyph unicode="&#x41e;" horiz-adv-x="1648" d="M94 717q0 170 59.5 312t160.5 234.5t232.5 143.5t278.5 51t279 -51t232 -143.5t159 -234.5t59 -312q0 -216 -92.5 -385t-260 -263t-380.5 -94q-148 0 -279.5 51t-231 144t-158 234.5t-58.5 312.5zM336 717q0 -122 38.5 -221t105 -163t155 -98t190.5 -34q101 0 190 34 t156.5 98t106.5 163t39 221q0 120 -39 219t-105.5 163.5t-155.5 100t-190 35.5q-102 0 -191 -35t-156 -99t-105.5 -163.5t-38.5 -220.5z" />
<glyph unicode="&#x41f;" horiz-adv-x="1486" d="M178 0v1434h1131v-1434h-240v1217h-653v-1217h-238z" />
<glyph unicode="&#x420;" horiz-adv-x="1335" d="M178 0v1434h594q116 0 213 -40.5t160.5 -110.5t98 -161.5t34.5 -193.5q0 -101 -35.5 -191t-99 -158.5t-160 -108.5t-211.5 -40h-354v-430h-240zM414 639h358q120 0 198.5 84.5t78.5 210.5t-77 209.5t-200 83.5h-358v-588z" />
<glyph unicode="&#x421;" horiz-adv-x="1556" d="M94 715q0 169 59 309.5t159 232.5t232 142.5t279 50.5q107 0 209 -30t190.5 -87.5t154 -150.5t93.5 -211h-229q-52 129 -162.5 194.5t-257.5 67.5q-219 0 -353 -144t-134 -374q0 -142 60 -258.5t172 -185t255 -68.5q152 0 266 73.5t160 212.5h232q-26 -127 -91.5 -225.5 t-156 -158t-194.5 -89.5t-216 -30q-147 0 -278 50t-231 141t-159 230.5t-59 307.5z" />
<glyph unicode="&#x422;" horiz-adv-x="1142" d="M39 1223v211h1065v-211h-416v-1223h-233v1223h-416z" />
<glyph unicode="&#x423;" horiz-adv-x="1286" d="M18 1405v29h263l378 -715h9l342 715h254v-25l-566 -1128q-36 -79 -73 -135t-87 -100t-107.5 -62t-134.5 -11t-169 43l33 187q111 -47 181.5 -17t121.5 138l76 153z" />
<glyph unicode="&#x424;" horiz-adv-x="1837" d="M113 719q0 116 37 211t101 160t153 109.5t189.5 66t213.5 24.5v148h223v-148q116 -3 216 -23.5t189 -63.5t152.5 -107.5t100 -160.5t36.5 -216t-37.5 -216t-101 -159.5t-153.5 -107t-189.5 -63.5t-214.5 -23v-152h-221v152q-143 4 -264 38t-219.5 100t-154.5 176t-56 255 zM352 719q0 -82 26.5 -146t69 -103.5t103.5 -65.5t123.5 -37t134.5 -13v729q-457 -12 -457 -364zM1026 354q74 2 137 13t124 37t103.5 66t68.5 103.5t26 145.5q0 352 -459 364v-729z" />
<glyph unicode="&#x425;" horiz-adv-x="1327" d="M23 0v33l497 725l-446 641v35h256l168 -263l161 -268h7l165 275l166 256h254v-35l-444 -641l496 -725v-33h-254l-201 311l-180 293h-9l-176 -287l-207 -317h-253z" />
<glyph unicode="&#x426;" horiz-adv-x="1517" d="M178 0v1434h240v-1217h618v1217h240v-1229h168v-412h-211v207h-1055z" />
<glyph unicode="&#x427;" horiz-adv-x="1314" d="M82 1206v226h242v-226q0 -214 57.5 -326.5t185.5 -144t332 12.5v684h236v-1432h-236v524q-419 -72 -618 87.5t-199 594.5z" />
<glyph unicode="&#x428;" horiz-adv-x="2111" d="M178 0v1434h240v-1217h516v1217h240v-1217h520v1217h239v-1434h-1755z" />
<glyph unicode="&#x429;" horiz-adv-x="2162" d="M178 0v1434h240v-1217h508v1217h237v-1217h516v1217h238v-1229h172v-412h-213v207h-1698z" />
<glyph unicode="&#x42a;" horiz-adv-x="1447" d="M39 1231v203h487v-469h351q234 0 373 -134.5t139 -345.5q0 -215 -138.5 -350t-373.5 -135h-586v1231h-252zM526 211q38 0 109.5 -0.5t130.5 -0.5t111 1q122 0 199 78t75 196q0 117 -76.5 192t-197.5 75h-351v-541z" />
<glyph unicode="&#x42b;" horiz-adv-x="1906" d="M178 0v1434h234v-72v-397h352q123 0 224 -44t163.5 -117t92.5 -168.5t20 -199.5q-16 -188 -151 -312t-349 -124h-586zM412 211q51 0 156 -1t157 -1q139 0 221.5 65.5t89.5 188.5q8 123 -69 206t-203 83h-66h-286v-541zM1491 0v1434h238v-1434h-238z" />
<glyph unicode="&#x42c;" horiz-adv-x="1325" d="M178 0v1434h234v-469h352q229 0 366.5 -138.5t137.5 -341.5q0 -131 -59 -240.5t-175.5 -177t-269.5 -67.5h-586zM412 211q39 0 110.5 -0.5t130 -0.5t111.5 1q122 0 198 78t76 196q-2 118 -77.5 192.5t-196.5 74.5h-352v-541z" />
<glyph unicode="&#x42d;" horiz-adv-x="1556" d="M72 487h233q45 -139 160.5 -213.5t267.5 -74.5q191 -2 322 113t153 304h-571v199h575q-19 189 -149.5 306t-323.5 116q-145 -2 -255.5 -69.5t-164.5 -196.5h-231q28 119 94 213t154.5 151.5t191 87t211.5 29.5q147 1 278 -49.5t230 -143t157 -233t58 -309.5t-59.5 -309.5 t-160.5 -232t-233 -142t-278 -49.5q-113 0 -217 30.5t-194.5 90t-156 158t-91.5 224.5z" />
<glyph unicode="&#x42e;" horiz-adv-x="2195" d="M178 0v1434h240v-590h241q19 143 84.5 259.5t161.5 193.5t217 119t254 42q147 -1 277.5 -52t230.5 -143.5t158.5 -234t58.5 -311.5q0 -138 -38.5 -258t-106.5 -208t-159.5 -151.5t-199.5 -95t-225 -31.5q-184 2 -339 78.5t-258 226t-122 347.5h-235v-625h-240zM885 717 q0 -118 38.5 -216t105.5 -163t155.5 -101t189.5 -36t189.5 36t155 101t105 163t38.5 216q0 155 -67 273t-177.5 178.5t-245.5 60.5q-208 0 -347.5 -140t-139.5 -372z" />
<glyph unicode="&#x42f;" horiz-adv-x="1396" d="M66 0v35l362 502q-136 48 -217 160t-82 261q0 130 58.5 237.5t173.5 173t266 65.5h592v-1434h-240v500h-315l-342 -500h-256zM360 965q0 -117 75.5 -193t193.5 -76h354v529h-354q-120 0 -194.5 -73t-74.5 -187z" />
<glyph unicode="&#x430;" horiz-adv-x="1124" d="M70 289q-4 170 103.5 259t279.5 89q159 0 292 -74v99q0 74 -47 117t-117 53t-150 3.5t-146.5 -24t-106.5 -37.5l-33 160q153 78 365 78q75 0 139.5 -11t123.5 -37t100 -66t65.5 -102t24.5 -141v-389v-10q0 -33 0.5 -48.5t5.5 -36.5t15.5 -29.5t30.5 -14t50 -2.5l4 -127 q-53 -9 -89.5 -12t-75 3.5t-62 25.5t-39 56.5t-17.5 94.5q-46 -92 -147 -138t-215 -46q-92 0 -171.5 35.5t-131 107t-51.5 164.5zM289 301q0 -69 53 -106t127 -37q98 0 179 46.5t97 133.5v82q-121 70 -256 67q-86 -2 -143 -50.5t-57 -135.5z" />
<glyph unicode="&#x431;" horiz-adv-x="1230" d="M117 428q-92 702 465 897q16 5 28.5 10t31 12.5t32.5 14t30 16.5t27.5 19.5t21.5 22t14 25.5t4 28.5t-7 31.5h205q18 -61 7.5 -112t-47.5 -95t-83.5 -75t-100.5 -52q-180 -70 -238 -102q-117 -64 -163 -163q-24 -50 -35 -115q44 78 144.5 131.5t208.5 54.5 q112 4 205 -35.5t153 -109.5t92.5 -161t32.5 -192q0 -104 -33.5 -194.5t-97 -158.5t-162 -107t-221.5 -39q-118 0 -211.5 34.5t-155 97t-98 141.5t-49.5 175zM328 481q0 -141 85.5 -224t215.5 -83q135 0 217 86.5t80 220.5q-2 130 -85 216.5t-216 86.5q-132 0 -215.5 -88 t-81.5 -215z" />
<glyph unicode="&#x432;" horiz-adv-x="1187" d="M141 39v1065q0 184 122 291.5t312 107.5q193 0 315 -99t122 -284q0 -95 -50 -169t-135 -115q140 -38 208.5 -144.5t70.5 -259.5q0 -99 -28 -178t-76 -132t-115.5 -88.5t-144 -51.5t-164.5 -17q-225 -3 -437 74zM354 186q113 -37 224 -34q142 2 228 72t85 208 q0 282 -307 279q-105 0 -230 -39v-486zM354 850q36 12 92.5 24.5t100.5 20.5t93 24.5t81.5 38.5t54 61.5t21.5 92.5q1 91 -62 148t-155 57t-159 -57t-67 -154v-256z" />
<glyph unicode="&#x433;" horiz-adv-x="1036" d="M76 270q0 68 23.5 119.5t59.5 84t92.5 55.5t108.5 34.5t123 20.5q66 8 103.5 15t72.5 20.5t49.5 35t14.5 54.5q0 69 -59.5 100t-147.5 31t-145.5 -30.5t-57.5 -98.5h-196q-4 142 108.5 219.5t290.5 77.5q83 0 156.5 -18t133.5 -54t95 -95.5t35 -135.5q-1 -36 -10.5 -67.5 t-22.5 -54.5t-38.5 -43.5t-45.5 -34t-56.5 -25.5t-60 -19t-67.5 -14.5t-66 -11t-69 -9.5q-211 -26 -211 -152q2 -35 16 -60t34 -39t51 -22t58.5 -10t65.5 -2q86 0 150.5 39t68.5 111h228q-5 -71 -33 -127t-70.5 -91t-101.5 -57.5t-120 -31.5t-130 -9q-86 0 -160 16 t-136.5 49t-98 92t-35.5 138z" />
<glyph unicode="&#x434;" horiz-adv-x="1183" d="M84 485q0 130 43.5 231.5t120 163t175 91.5t214.5 28q198 -3 407 -92v-968q0 -124 -37.5 -220.5t-103.5 -155t-150.5 -88t-183.5 -30.5q-210 -3 -415 111l32 180q220 -106 377 -103q266 3 266 310v104q-147 -82 -299 -82q-194 2 -320 141.5t-126 378.5zM307 485 q0 -155 77 -240t198 -87q118 -3 243 78v540q-104 37 -209 37q-144 0 -226 -83t-83 -245z" />
<glyph unicode="&#x435;" horiz-adv-x="1128" d="M84 514q2 120 44.5 216t113.5 156.5t161.5 92t192.5 31.5q255 0 370.5 -153.5t65.5 -403.5h-729q0 -132 91.5 -209.5t230.5 -77.5q196 -10 358 61l29 -166q-189 -84 -373 -84q-163 -3 -290.5 61t-198.5 188t-66 288zM307 610h545q4 107 -71 167.5t-187 60.5 q-114 0 -189 -57t-98 -171z" />
<glyph unicode="&#x436;" horiz-adv-x="1576" d="M53 0v25l301 481q-74 33 -124 82.5t-75 113.5t-33.5 132.5t-4.5 152.5h209q-4 -88 12 -156t56 -122t113.5 -82.5t178.5 -28.5v879h207v-879q103 0 177.5 28.5t116.5 82t59.5 122.5t13.5 156h202q4 -84 -5 -152.5t-34.5 -132.5t-76 -113.5t-125.5 -82.5l303 -481v-25h-226 l-262 436q-58 -14 -143 -14v-422h-207v422q-87 0 -145 14l-265 -436h-223z" />
<glyph unicode="&#x437;" horiz-adv-x="997" d="M74 76l12 188q52 -39 163 -70t208 -32q243 0 243 131q0 38 -17 65.5t-42.5 42.5t-62.5 23.5t-68.5 11t-69.5 2.5h-145v154h135q44 0 75 3.5t66.5 14.5t54.5 37t19 66q0 48 -35 77.5t-79.5 38.5t-100.5 9q-75 0 -165.5 -19t-145.5 -51l-13 162q67 36 164.5 57t198.5 21 q78 0 144.5 -14t123.5 -43.5t90 -84.5t33 -129t-38.5 -131t-112.5 -76q98 -24 154.5 -89t56.5 -162q0 -64 -24 -116t-65 -86.5t-97 -58t-117 -33.5t-128 -10q-115 0 -227.5 28t-187.5 73z" />
<glyph unicode="&#x438;" horiz-adv-x="1263" d="M53 985q163 34 255.5 -17.5t92.5 -207.5v-344q-1 -118 56.5 -186t156.5 -68q108 0 179 71.5t71 188.5v565h223v-704q0 -93 18.5 -121t86.5 -21l2 -145q-35 -6 -57 -9.5t-56.5 -5t-57 2.5t-49 15t-41.5 31t-25.5 53t-10.5 77q-48 -93 -142 -134.5t-210 -41.5 q-99 0 -172 33t-115 93t-62 136t-20 170v289q0 78 -23 107t-98 22q0 22 -1 76t-1 75z" />
<glyph unicode="&#x439;" horiz-adv-x="1263" d="M53 985q163 34 255.5 -17.5t92.5 -207.5v-344q-1 -118 56.5 -186t156.5 -68q108 0 179 71.5t71 188.5v565h223v-704q0 -93 18.5 -121t86.5 -21l2 -145q-35 -6 -57 -9.5t-56.5 -5t-57 2.5t-49 15t-41.5 31t-25.5 53t-10.5 77q-48 -93 -142 -134.5t-210 -41.5 q-99 0 -172 33t-115 93t-62 136t-20 170v289q0 78 -23 107t-98 22q0 22 -1 76t-1 75zM303 1434l139 16q9 -63 54 -95t118 -34q159 0 181 129q78 -7 143 -16q-10 -132 -98.5 -210.5t-223.5 -78.5q-129 0 -216 78t-97 211z" />
<glyph unicode="&#x43a;" horiz-adv-x="1116" d="M137 0v1481h221v-887h103q178 0 257 103t79 292h213q1 -85 -11 -156.5t-40 -138t-80 -119t-127 -86.5l317 -466v-23h-233l-275 418q-39 -10 -104 -10h-99v-408h-221z" />
<glyph unicode="&#x43b;" horiz-adv-x="1112" d="M33 0v25l477 972h88l481 -972v-25h-241l-127 289l-152 368h-4l-156 -366l-129 -291h-237z" />
<glyph unicode="&#x43c;" horiz-adv-x="1327" d="M145 0v987h70l447 -495l450 495h70v-987h-215v551l-295 -326h-21l-293 326v-551h-213z" />
<glyph unicode="&#x43d;" horiz-adv-x="1280" d="M61 985q340 72 340 -225v-152h476v379h217v-706q0 -78 22.5 -107t97.5 -22q0 -22 1.5 -76.5t1.5 -75.5q-340 -72 -340 225v189h-478v-414h-215v705q0 78 -23 107t-98 22q0 22 -1 76t-1 75z" />
<glyph unicode="&#x43e;" horiz-adv-x="1210" d="M84 498q0 123 43.5 222.5t116 161.5t163 95t189.5 35q101 2 194.5 -30.5t169 -94.5t121 -163t45.5 -226q0 -100 -29.5 -185.5t-79.5 -145.5t-117 -102t-142 -62.5t-154 -20.5q-100 0 -191.5 33t-165.5 95t-118.5 163t-44.5 225zM305 498q0 -152 90 -237t213 -83 q120 2 207.5 86.5t87.5 233.5q0 78 -26.5 140.5t-70.5 100.5t-98 58t-112 18q-56 -2 -107.5 -22.5t-93 -58.5t-66 -99t-24.5 -137z" />
<glyph unicode="&#x43f;" horiz-adv-x="1267" d="M63 991q59 17 117.5 14t105 -20t75 -58t28.5 -100q46 91 133.5 137t196.5 46q195 0 295.5 -115.5t95.5 -306.5v-352q0 -58 23 -78t92 -13v-141q-60 -12 -107.5 -14t-91.5 9t-73 37t-46.5 74t-17.5 117v353q0 114 -67 181.5t-169 67.5q-107 0 -178.5 -69.5t-71.5 -186.5 v-573h-223v686v20q0 53 -1.5 74t-12.5 42.5t-34 25.5t-66 0z" />
<glyph unicode="&#x440;" horiz-adv-x="1226" d="M70 995q288 58 288 -168q27 66 82 109t118.5 60.5t137.5 17.5q140 0 243.5 -73t153.5 -188t50 -253q0 -154 -68.5 -274t-181 -181t-244.5 -55q-130 6 -250 78v-576h-223v1180v28q0 36 -0.5 52.5t-5.5 38t-16 30t-31 15t-51 6.5zM395 264q124 -86 252 -80q118 5 194.5 88 t76.5 228q0 85 -29 155t-91 115t-147 45q-113 0 -184.5 -80.5t-71.5 -193.5v-277z" />
<glyph unicode="&#x441;" horiz-adv-x="1157" d="M84 498q0 99 29.5 184t79.5 145t116 103t140.5 64t152.5 22q171 2 306 -91t173 -266h-207q-31 77 -101.5 117.5t-160.5 40.5q-123 0 -215 -85.5t-92 -233.5q0 -77 26 -139.5t69.5 -101.5t97 -60t110.5 -21q88 0 161 46.5t105 133.5h213q-19 -91 -66.5 -163t-113 -117 t-143 -68.5t-160.5 -23.5q-99 0 -190.5 33t-166 95t-119 162t-44.5 224z" />
<glyph unicode="&#x442;" horiz-adv-x="1875" d="M63 846v145q60 17 117.5 18t106 -16t78.5 -59.5t30 -106.5q46 89 135.5 136t192.5 45q102 -2 180 -49t115 -138q58 97 151 145t203 46q340 0 340 -432v-316q0 -39 2.5 -58t13.5 -39.5t37 -26t70 0.5v-137q-106 -23 -183 -12t-121 71.5t-44 169.5v347q2 114 -47 181.5 t-144 67.5q-104 -2 -166.5 -71t-62.5 -185v-573h-219v573q2 119 -49.5 186.5t-153.5 67.5q-106 -2 -171.5 -71.5t-65.5 -186.5v-569h-226v674q0 40 -0.5 59.5t-4 44.5t-11 35.5t-20.5 21t-33.5 12.5t-49.5 -1z" />
<glyph unicode="&#x443;" horiz-adv-x="1130" d="M33 963v24h239l308 -733h6l280 733h224v-24l-428 -1047q-29 -71 -52.5 -122t-56.5 -107t-65.5 -91t-76 -64t-91 -37t-108 1.5t-128.5 40.5l25 162q64 -29 115 -29.5t88 26.5t64 69.5t50 107.5l47 121z" />
<glyph unicode="&#x444;" horiz-adv-x="1732" d="M88 496q0 127 35 228.5t98 165.5t146 93.5t184.5 15t206.5 -72.5v565h219v-565q105 58 206 72.5t183.5 -15t145.5 -93.5t98 -165.5t35 -228.5q0 -157 -54.5 -274t-145.5 -175t-214 -54.5t-254 75.5v-570h-219v570q-132 -72 -255.5 -75.5t-214 54.5t-145.5 175t-55 274z M313 496q0 -105 38 -180t100 -107t144.5 -20t168.5 71v473q-69 47 -136.5 64.5t-123.5 3.5t-99 -51.5t-67.5 -103.5t-24.5 -150zM973 260q85 -59 167 -71t143.5 20t99.5 107t38 180q0 84 -24 150t-67.5 103.5t-99 51.5t-122.5 -3.5t-135 -64.5v-473z" />
<glyph unicode="&#x445;" horiz-adv-x="1042" d="M29 0v25l366 499l-311 439v24h213l113 -156l108 -167h6l107 163l117 160h225v-24l-324 -453l355 -485v-25h-216l-145 201l-115 184h-6l-121 -188l-147 -197h-225z" />
<glyph unicode="&#x446;" horiz-adv-x="1286" d="M51 846v137q106 23 183 12t121 -71.5t44 -169.5v-338q-3 -119 55 -186.5t158 -67.5q108 0 178 71t70 189v565h223v-735q0 -88 27.5 -111t116.5 -20l-13 -379h-174v242q-88 -9 -127 34t-39 136q-74 -170 -331 -170q-369 0 -369 432v307q0 39 -2.5 58t-13.5 39.5t-37 26 t-70 -0.5z" />
<glyph unicode="&#x447;" horiz-adv-x="1103" d="M74 758v229h225v-229q0 -78 30.5 -135t80.5 -83.5t109.5 -33t120.5 12t110 56.5v412h217v-987h-222v362q-98 -44 -195.5 -55.5t-182.5 13t-151 78.5t-104 147t-38 213z" />
<glyph unicode="&#x448;" horiz-adv-x="1892" d="M55 846v137q106 23 183 12t121 -71.5t44 -169.5v-346q-2 -114 47 -182t144 -68q104 2 166.5 71t62.5 185v573h219v-573q-2 -119 49.5 -186.5t153.5 -67.5q106 2 172 71.5t66 186.5v569h225v-674q0 -40 0.5 -59.5t4 -44.5t11 -35.5t20.5 -21t33.5 -12.5t49.5 1v-145 q-60 -17 -117.5 -18t-106 16t-78.5 59.5t-30 106.5q-45 -89 -135 -135.5t-193 -44.5q-102 2 -180 48.5t-115 137.5q-58 -97 -151 -145t-203 -46q-340 0 -340 433v315q0 39 -2.5 58t-13.5 39.5t-37 26t-70 -0.5z" />
<glyph unicode="&#x449;" horiz-adv-x="1908" d="M51 846v137q106 23 183.5 12t122 -72t44.5 -169v-310q0 -47 2.5 -80t13 -75t30 -68t56.5 -44t89 -17q101 2 165 71.5t64 184.5v571h221v-504q0 -76 5 -127q9 -95 59.5 -146t136.5 -50q89 2 153 54t79 142q10 68 10 129v502h223v-743q0 -39 3 -58t16.5 -37.5t42.5 -24 t79 -3.5l-12 -381h-172v248q-89 -6 -121.5 33t-32.5 137q-41 -87 -130.5 -132.5t-198.5 -45.5q-119 0 -185 49t-98 141q-71 -111 -158.5 -152t-212.5 -41q-161 0 -259 116t-95 317v313q0 39 -2.5 58t-13.5 39.5t-37 26t-70 -0.5z" />
<glyph unicode="&#x44a;" horiz-adv-x="1175" d="M47 803v184h440v-307h199q70 0 131.5 -11t117.5 -36.5t96 -64t63.5 -97t23.5 -131.5q0 -90 -36 -157.5t-98 -106t-137.5 -57.5t-162.5 -19h-412v803h-225zM487 170h195q96 0 157.5 43t61.5 127t-61.5 127t-157.5 43h-195v-340z" />
<glyph unicode="&#x44b;" horiz-adv-x="1521" d="M145 0h412q69 0 131 11.5t118.5 37t97.5 64t65 97t24 130.5q0 91 -35.5 159t-98 106t-137.5 56.5t-163 18.5h-199v307h-215v-987zM360 170v340h195q97 0 159 -42.5t62 -127.5q0 -84 -62 -127t-159 -43h-195zM1176 0v989h208v-989h-208z" />
<glyph unicode="&#x44c;" horiz-adv-x="1050" d="M145 0v987h215v-307h199q88 0 163 -18.5t137.5 -56.5t98 -106t35.5 -159q0 -72 -24 -130.5t-65 -97t-97.5 -64t-118.5 -37t-131 -11.5h-412zM360 170h195q97 0 159 43t62 127t-62 127t-159 43h-195v-340z" />
<glyph unicode="&#x44d;" horiz-adv-x="1169" d="M68 358h215q31 -91 107.5 -138.5t168.5 -47.5q121 2 206.5 57.5t98.5 171.5h-401v172h401q-7 63 -34 111t-68.5 76t-89.5 41.5t-103 13.5q-90 -2 -168 -44t-110 -120l-211 2q19 88 67.5 158t116 112.5t145.5 65t160 21.5q101 0 191 -30.5t164 -91t117.5 -162t43.5 -232.5 q0 -132 -45.5 -234.5t-122 -162.5t-168 -90t-192.5 -30q-114 0 -214 41t-175.5 129.5t-99.5 210.5z" />
<glyph unicode="&#x44e;" horiz-adv-x="1667" d="M145 0v987h217v-379h191q18 98 68 176.5t120.5 127.5t153.5 74.5t172 25.5q99 -1 190.5 -35t164.5 -96.5t117 -163t44 -223.5q0 -125 -44.5 -226t-118.5 -163t-165.5 -95t-191.5 -33q-92 0 -177.5 27.5t-157 80.5t-120 138t-61.5 191h-185v-414h-217zM762 494 q0 -101 44.5 -175.5t112 -109t144.5 -33.5q56 0 108 20.5t94.5 59t67.5 100.5t25 138q0 149 -87.5 233t-207.5 86q-57 0 -110.5 -20.5t-96.5 -59t-68.5 -100.5t-25.5 -139z" />
<glyph unicode="&#x44f;" horiz-adv-x="1097" d="M63 0v25l259 333q-93 33 -153 115t-60 182q0 139 96 235t252 97h495v-987h-225v317h-186l-238 -317h-240zM332 651q0 -69 52.5 -112t135.5 -43h207v319h-207q-84 0 -136 -46t-52 -118z" />
<glyph unicode="&#x451;" horiz-adv-x="1128" d="M84 514q2 120 44.5 216t113.5 156.5t161.5 92t192.5 31.5q255 0 370.5 -153.5t65.5 -403.5h-729q0 -132 91.5 -209.5t230.5 -77.5q196 -10 358 61l29 -166q-189 -84 -373 -84q-163 -3 -290.5 61t-198.5 188t-66 288zM225 1321q0 50 34.5 81.5t86.5 31.5q51 0 87 -31.5 t36 -81.5q0 -48 -36 -78.5t-87 -30.5q-52 0 -86.5 30t-34.5 79zM307 610h545q4 107 -71 167.5t-187 60.5q-114 0 -189 -57t-98 -171zM688 1321q0 50 34.5 81.5t86.5 31.5t86.5 -31.5t34.5 -81.5q0 -49 -34.5 -79t-86.5 -30t-86.5 30t-34.5 79z" />
<glyph unicode="&#x452;" horiz-adv-x="1206" d="M-12 1206v152h157v139h224v-139h301v-152h-301v-350q103 160 317 160q104 0 181.5 -35t122 -97t66 -138.5t21.5 -167.5v-367q0 -240 -107.5 -338.5t-328.5 -60.5q0 29 1 86t1 84q39 -8 69.5 -5t53 8t38.5 21t26 33.5t16 46t8 58t2 69.5v365q-4 120 -65.5 186.5 t-167.5 66.5q-107 0 -180.5 -84t-73.5 -204v-543h-224v1206h-157z" />
<glyph unicode="&#x453;" horiz-adv-x="909" d="M145 0v987h719v-196h-502v-791h-217zM393 1159v21l168 309l193 -70v-18l-189 -242h-172z" />
<glyph unicode="&#x454;" horiz-adv-x="1169" d="M84 494q0 124 46 225t122 163t169 95t193 33q171 2 305 -91t171 -266l-211 -2q-32 78 -104.5 120t-160.5 44q-114 0 -201.5 -63.5t-101.5 -178.5h396v-161h-396q13 -114 98 -176t201 -64q92 0 169 47.5t108 138.5h215q-18 -92 -66 -166t-115 -120t-146 -70.5t-163 -24.5 q-79 0 -154.5 20.5t-143.5 63.5t-119 103t-81 145.5t-30 184.5z" />
<glyph unicode="&#x455;" horiz-adv-x="1040" d="M76 291h219q4 -72 71 -111t154 -39q44 0 82.5 7t73.5 23t56.5 47.5t23.5 74.5q0 62 -55.5 90.5t-165.5 42.5q-175 23 -241 44q-159 49 -189 170q-6 27 -7 58q0 61 23 113t63 87.5t93.5 60.5t114 37t126.5 12q117 0 211.5 -32.5t153 -101t55.5 -163.5h-197q0 67 -66 98 t-157 31q-83 0 -145 -38t-58 -100q1 -57 54 -80t182 -38q54 -7 88.5 -12.5t82 -17t77.5 -24.5t63 -35.5t52 -50t31.5 -67t12.5 -88.5q0 -79 -36 -141t-97.5 -98.5t-136.5 -55.5t-160 -19q-69 0 -130 9t-119 31.5t-100.5 57.5t-70 91t-32.5 127z" />
<glyph unicode="&#x456;" horiz-adv-x="514" d="M123 1292q0 62 40 96.5t95 34.5t94 -35t39 -96q0 -62 -38.5 -96.5t-92.5 -36.5q-55 -2 -96 33.5t-41 99.5zM145 0v977h224v-977h-224z" />
<glyph unicode="&#x457;" horiz-adv-x="512" d="M-74 1323q0 55 37 88t94 33q55 0 93 -33.5t38 -87.5q0 -53 -38 -86t-93 -33q-56 0 -93.5 33t-37.5 86zM145 0v985h222v-985h-222zM324 1323q0 55 37 88t94 33t94 -33t37 -88q0 -53 -37.5 -86t-93.5 -33t-93.5 33t-37.5 86z" />
<glyph unicode="&#x458;" horiz-adv-x="512" d="M-86 -514l8 168q41 -8 72.5 -5t55 8t40 21t27.5 33.5t17 46t8.5 58t2.5 69.5v1098h222v-1100q0 -249 -111.5 -344t-341.5 -53zM121 1292q0 61 38.5 95t92.5 36q55 2 96 -33t41 -98q0 -59 -38.5 -93t-92.5 -36q-55 -2 -96 32.5t-41 96.5z" />
<glyph unicode="&#x459;" horiz-adv-x="1599" d="M33 0l6 164q32 -5 57 -5t44.5 5t34 12t25 21.5t17.5 28.5t12 37t8.5 43.5t6.5 51.5l71 629h668v-307h141q88 0 161 -18t132 -57t92 -106.5t33 -158.5q0 -72 -22.5 -130t-61 -97t-92.5 -64.5t-114.5 -37t-129.5 -11.5h-354v791h-260l-47 -441q-6 -68 -16 -118.5 t-25.5 -92.5t-39 -70t-55 -47t-74.5 -26.5t-96 -6.5t-122 11zM983 170h137q96 0 152.5 42.5t56.5 127.5t-56.5 127.5t-152.5 42.5h-137v-340z" />
<glyph unicode="&#x45a;" horiz-adv-x="1568" d="M137 0v987h217v-340h383v340h215v-332h142q89 0 161 -16t131.5 -52.5t92 -102t32.5 -156.5q0 -90 -33.5 -155.5t-93 -102t-132 -53.5t-160.5 -17h-355v453h-383v-453h-217zM952 170h138q208 0 208 158q0 157 -208 157h-138v-315z" />
<glyph unicode="&#x45b;" horiz-adv-x="1208" d="M-10 1206v152h155v139h224v-139h301v-152h-301v-352q107 153 305 156q194 0 298.5 -113.5t104.5 -318.5v-578h-221v578q-4 118 -65.5 181.5t-167.5 63.5q-108 0 -181 -80t-73 -200v-543h-224v1206h-155z" />
<glyph unicode="&#x45c;" horiz-adv-x="1112" d="M137 2v985h221v-393h103q178 0 257 103t79 292h213q1 -85 -11 -155.5t-40 -135.5t-80 -116.5t-127 -85.5l305 -471v-23h-228l-268 424q-39 -10 -104 -10h-99v-414h-221zM446 1159v21l168 309l193 -70v-18l-189 -242h-172z" />
<glyph unicode="&#x45e;" horiz-adv-x="1130" d="M33 963v24h239l308 -731h6l280 731h224v-24l-428 -1047q-29 -71 -52.5 -122t-57 -107.5t-65.5 -92t-75.5 -65t-91 -38t-108 1t-128.5 40.5l25 166q64 -29 115 -29.5t88 26.5t64 69.5t50 107.5l47 121zM258 1427l139 17q9 -63 54 -95t118 -34q159 0 181 129q58 -5 143 -17 q-10 -132 -98.5 -210t-223.5 -78q-130 0 -216.5 77.5t-96.5 210.5z" />
<glyph unicode="&#x45f;" horiz-adv-x="1198" d="M145 0v987h224v-790h458v790h226v-987h-351v-209h-206v209h-351z" />
<glyph unicode="&#x490;" horiz-adv-x="1062" d="M178 0v1434h664v213h190v-424h-616v-1223h-238z" />
<glyph unicode="&#x491;" horiz-adv-x="909" d="M145 0v987h531v197h188v-393h-499v-791h-220z" />
<glyph unicode="&#x2000;" />
<glyph unicode="&#x2001;" horiz-adv-x="1905" />
<glyph unicode="&#x2002;" />
<glyph unicode="&#x2003;" horiz-adv-x="1905" />
<glyph unicode="&#x2004;" horiz-adv-x="635" />
<glyph unicode="&#x2005;" horiz-adv-x="476" />
<glyph unicode="&#x2006;" horiz-adv-x="317" />
<glyph unicode="&#x2007;" horiz-adv-x="317" />
<glyph unicode="&#x2008;" horiz-adv-x="238" />
<glyph unicode="&#x2009;" horiz-adv-x="381" />
<glyph unicode="&#x200a;" horiz-adv-x="105" />
<glyph unicode="&#x2010;" d="M131 586v192h690v-192h-690z" />
<glyph unicode="&#x2011;" d="M131 586v192h690v-192h-690z" />
<glyph unicode="&#x2012;" d="M131 586v192h690v-192h-690z" />
<glyph unicode="&#x2013;" horiz-adv-x="1112" d="M131 586v192h850v-192h-850z" />
<glyph unicode="&#x2014;" horiz-adv-x="1292" d="M131 586v192h1030v-192h-1030z" />
<glyph unicode="&#x2018;" horiz-adv-x="489" d="M111 1163q4 35 14 58l70 217h135l-45 -158q43 -12 68.5 -44.5t25.5 -78.5q0 -56 -37.5 -90.5t-95.5 -34.5q-48 0 -82.5 23.5t-46.5 64.5q-6 21 -6 43z" />
<glyph unicode="&#x2019;" horiz-adv-x="493" d="M115 1319q0 56 38.5 90.5t96.5 34.5q45 0 80.5 -23.5t48.5 -64.5q5 -36 4 -43q-3 -31 -12 -58l-70 -217h-135l45 160q-43 11 -69.5 43t-26.5 78z" />
<glyph unicode="&#x201a;" horiz-adv-x="526" d="M129 96q0 56 38.5 90.5t96.5 34.5q45 0 80 -23t47 -63q6 -21 6 -45q-1 -17 -12 -57q-22 -61 -72 -221h-135l47 163q-43 11 -69.5 43t-26.5 78z" />
<glyph unicode="&#x201c;" horiz-adv-x="880" d="M113 1161q0 31 12 58l70 219h135l-45 -160q43 -13 69.5 -44t26.5 -77q0 -59 -38 -93t-97 -34q-48 0 -82.5 23.5t-46.5 64.5q-7 27 -4 43zM502 1161q3 39 12 58l70 219h137l-47 -160q43 -13 69.5 -44t26.5 -77q0 -59 -38 -93t-97 -34q-48 0 -82.5 23.5t-44.5 64.5 q-6 21 -6 43z" />
<glyph unicode="&#x201d;" horiz-adv-x="888" d="M115 1319q0 56 38.5 90.5t96.5 34.5q45 0 80.5 -23.5t48.5 -64.5q5 -36 4 -43q-3 -31 -12 -58l-70 -217h-135l45 160q-43 11 -69.5 43t-26.5 78zM510 1319q0 56 38.5 90.5t96.5 34.5q45 0 80 -23.5t47 -64.5q6 -21 6 -43q-3 -31 -12 -58l-70 -217h-137l47 160 q-43 11 -69.5 43t-26.5 78z" />
<glyph unicode="&#x201e;" horiz-adv-x="913" d="M129 96q0 56 38.5 90.5t96.5 34.5q48 0 82 -22.5t47 -63.5q7 -27 4 -45q0 -11 -12 -57q-14 -39 -37.5 -113t-34.5 -106h-135l47 161q-43 11 -69.5 43t-26.5 78zM516 96q0 56 37.5 90.5t95.5 34.5q48 0 82.5 -22.5t46.5 -63.5q6 -21 6 -45q-4 -34 -14 -57 q-14 -39 -37.5 -113t-34.5 -106h-135l47 161q-42 11 -68 43t-26 78z" />
<glyph unicode="&#x2026;" horiz-adv-x="1499" d="M129 102q0 59 39 94t98 35t98 -35t39 -94q0 -56 -39.5 -91.5t-97.5 -35.5t-97.5 35.5t-39.5 91.5zM608 102q0 59 39 94t98 35t98.5 -35.5t39.5 -93.5q0 -56 -40 -91.5t-98 -35.5t-97.5 35.5t-39.5 91.5zM1094 102q0 58 40 93.5t97 35.5q61 0 100 -35t39 -94 q0 -56 -39 -91.5t-100 -35.5q-57 0 -97 35.5t-40 91.5z" />
<glyph unicode="&#x202f;" horiz-adv-x="381" />
<glyph unicode="&#x2039;" horiz-adv-x="655" d="M98 709l293 479l144 -53l-207 -426l207 -422l-144 -54z" />
<glyph unicode="&#x203a;" horiz-adv-x="655" d="M121 287l207 422l-207 426l143 53l293 -479l-293 -476z" />
<glyph unicode="&#x205f;" horiz-adv-x="476" />
<glyph unicode="&#x20ac;" horiz-adv-x="1337" d="M90 512v141h143q-3 74 5 138h-148v141h168q65 243 253.5 379.5t438.5 136.5q142 0 267 -47l-72 -189q-87 35 -187 35q-161 1 -280 -85t-170 -230h483l-47 -141h-475q-10 -77 -2 -138h432l-47 -141h-354q46 -147 165 -234.5t291 -87.5q125 0 230 54l78 -195 q-133 -65 -314 -65q-270 0 -455 139t-239 389h-164z" />
<glyph unicode="&#x2122;" horiz-adv-x="1556" d="M141 1300v136h521v-136h-183v-436h-151v436h-187zM756 864v572h78l241 -269l240 269h78v-572h-152v307l-162 -188h-10l-162 188v-307h-151z" />
<glyph unicode="&#xe000;" horiz-adv-x="983" d="M0 0v983h983v-983h-983z" />
</font>
</defs>
</svg>
